<svg xmlns="http://www.w3.org/2000/svg" width="24" height="24" viewBox="0 0 24 24">
  <g id="그룹_125404" data-name="그룹 125404" transform="translate(1721 11110)">
    <rect id="사각형_82706" data-name="사각형 82706" width="24" height="24" transform="translate(-1721 -11110)" fill="none"/>
    <g id="그룹_124940" data-name="그룹 124940" transform="translate(-2044 -11050)">
      <g id="bell_1_" data-name="bell (1)" transform="translate(326 -59.599)">
        <path id="패스_50006" data-name="패스 50006" d="M136.637,419.966a3.308,3.308,0,0,1-3.3-3.3.661.661,0,1,1,1.322,0,1.983,1.983,0,0,0,3.966,0,.661.661,0,1,1,1.322,0A3.308,3.308,0,0,1,136.637,419.966Zm0,0" transform="translate(-127.824 -398.859)" fill="#141414"/>
        <path id="패스_50006_-_윤곽선" data-name="패스 50006 - 윤곽선" d="M136.637,420.116a3.459,3.459,0,0,1-3.455-3.455.811.811,0,1,1,1.622,0,1.833,1.833,0,0,0,3.666,0,.811.811,0,1,1,1.622,0A3.459,3.459,0,0,1,136.637,420.116Zm-2.644-3.966a.512.512,0,0,0-.511.511,3.155,3.155,0,1,0,6.31,0,.511.511,0,1,0-1.022,0,2.133,2.133,0,0,1-4.266,0A.512.512,0,0,0,133.993,416.15Z" transform="translate(-127.824 -398.859)"/>
        <path id="패스_50007" data-name="패스 50007" d="M16.084,79.6H1.542A1.531,1.531,0,0,1,0,78.083,1.505,1.505,0,0,1,.539,76.93a5.769,5.769,0,0,0,2.1-4.447V70.067A6.125,6.125,0,0,1,8.813,64a6.125,6.125,0,0,1,6.169,6.066v2.416a5.767,5.767,0,0,0,2.1,4.441,1.507,1.507,0,0,1,.548,1.159A1.531,1.531,0,0,1,16.084,79.6ZM8.813,65.3a4.812,4.812,0,0,0-4.847,4.766v2.416A7.055,7.055,0,0,1,1.4,77.917a.214.214,0,0,0-.079.166.221.221,0,0,0,.22.217H16.084a.221.221,0,0,0,.22-.217.213.213,0,0,0-.078-.165,7.057,7.057,0,0,1-2.566-5.435V70.067A4.812,4.812,0,0,0,8.813,65.3Zm0,0" transform="translate(0 -61.401)" fill="#141414"/>
        <path id="패스_50007_-_윤곽선" data-name="패스 50007 - 윤곽선" d="M16.084,79.75H1.542A1.681,1.681,0,0,1-.15,78.083a1.655,1.655,0,0,1,.593-1.267,5.625,5.625,0,0,0,2.051-4.333V70.067A6.275,6.275,0,0,1,8.813,63.85a6.276,6.276,0,0,1,6.319,6.216v2.416a5.618,5.618,0,0,0,2.042,4.326,1.662,1.662,0,0,1,.6,1.274A1.682,1.682,0,0,1,16.084,79.75ZM8.813,64.15a5.975,5.975,0,0,0-6.019,5.916v2.416A5.924,5.924,0,0,1,.635,77.046,1.355,1.355,0,0,0,.15,78.083a1.381,1.381,0,0,0,1.392,1.367H16.084a1.381,1.381,0,0,0,1.392-1.367,1.362,1.362,0,0,0-.495-1.044,5.917,5.917,0,0,1-2.149-4.556V70.067A5.975,5.975,0,0,0,8.813,64.15Zm7.271,14.3H1.542a.369.369,0,0,1-.37-.367A.363.363,0,0,1,1.3,77.8a6.9,6.9,0,0,0,2.511-5.319V70.067a4.963,4.963,0,0,1,5-4.916h0a4.963,4.963,0,0,1,5,4.916v2.416a6.908,6.908,0,0,0,2.512,5.32.364.364,0,0,1,.132.28A.369.369,0,0,1,16.084,78.45Zm-7.271-13a4.663,4.663,0,0,0-4.7,4.616v2.416A7.2,7.2,0,0,1,1.5,78.032a.062.062,0,0,0-.025.051.071.071,0,0,0,.07.067H16.084a.071.071,0,0,0,.07-.067.062.062,0,0,0-.024-.05,7.206,7.206,0,0,1-2.62-5.55V70.067A4.663,4.663,0,0,0,8.813,65.45Z" transform="translate(0 -61.401)"/>
      </g>
      <circle id="타원_2926" data-name="타원 2926" cx="3" cy="3" r="3" transform="translate(336 -58)" fill="#ed6d34"/>
    </g>
  </g>
</svg>
