<svg xmlns="http://www.w3.org/2000/svg" width="50.934" height="50.934" viewBox="0 0 50.934 50.934">
  <g id="그룹_125407" data-name="그룹 125407" transform="translate(1434.292 10957.684)">
    <path id="패스_59078" data-name="패스 59078" d="M25.467,3a22.474,22.474,0,0,0-8.744,43.17A22.474,22.474,0,0,0,34.211,4.764,22.324,22.324,0,0,0,25.467,3m0-3A25.467,25.467,0,1,1,0,25.467,25.467,25.467,0,0,1,25.467,0Z" transform="translate(-1434.292 -10957.684)" fill="#8e8e8e"/>
    <g id="그룹_41088" data-name="그룹 41088" transform="translate(-1589.325 -11175.698)">
      <path id="선_4434" data-name="선 4434" d="M1.5,15.534h-3V0h3Z" transform="translate(180.5 232.965)" fill="#8e8e8e"/>
      <path id="선_4435" data-name="선 4435" d="M1.5,3h-3V0h3Z" transform="translate(180.5 251)" fill="#8e8e8e"/>
    </g>
  </g>
</svg>
