<svg xmlns="http://www.w3.org/2000/svg" width="36.388" height="38.193" viewBox="0 0 36.388 38.193">
  <g id="그룹_125443" data-name="그룹 125443" transform="translate(-1106.85 8276.863)">
    <path id="패스_50006" data-name="패스 50006" d="M140.1,424.12a6.774,6.774,0,0,1-6.767-6.767,1.353,1.353,0,1,1,2.707,0,4.06,4.06,0,1,0,8.12,0,1.353,1.353,0,1,1,2.707,0A6.774,6.774,0,0,1,140.1,424.12Zm0,0" transform="translate(984.945 -8662.94)" fill="#b9b9b9"/>
    <path id="패스_50006_-_윤곽선" data-name="패스 50006 - 윤곽선" d="M140.1,424.27a6.924,6.924,0,0,1-6.917-6.917,1.5,1.5,0,1,1,3.007,0,3.91,3.91,0,1,0,7.82,0,1.5,1.5,0,1,1,3.007,0A6.924,6.924,0,0,1,140.1,424.27Zm-5.413-8.12a1.2,1.2,0,0,0-1.2,1.2,6.617,6.617,0,1,0,13.233,0,1.2,1.2,0,1,0-2.407,0,4.21,4.21,0,1,1-8.42,0A1.2,1.2,0,0,0,134.685,416.15Z" transform="translate(984.945 -8662.94)" fill="#b9b9b9"/>
    <path id="패스_50007" data-name="패스 50007" d="M32.93,95.938H3.158A3.135,3.135,0,0,1,0,92.833a3.082,3.082,0,0,1,1.1-2.36,11.811,11.811,0,0,0,4.309-9.106V76.421A12.541,12.541,0,0,1,18.044,64a12.541,12.541,0,0,1,12.631,12.42v4.947a11.808,11.808,0,0,0,4.291,9.093,3.084,3.084,0,0,1,1.122,2.372,3.135,3.135,0,0,1-3.158,3.1ZM18.044,66.662A9.853,9.853,0,0,0,8.12,76.421v4.947A14.444,14.444,0,0,1,2.869,92.493a.439.439,0,0,0-.163.341.452.452,0,0,0,.451.443H32.93a.452.452,0,0,0,.451-.443.436.436,0,0,0-.159-.337,14.449,14.449,0,0,1-5.254-11.128V76.421a9.853,9.853,0,0,0-9.925-9.759Zm0,0" transform="translate(1107 -8340.714)" fill="#b9b9b9"/>
    <path id="패스_50007_-_윤곽선" data-name="패스 50007 - 윤곽선" d="M32.93,96.088H3.158A3.285,3.285,0,0,1-.15,92.833a3.232,3.232,0,0,1,1.158-2.475,11.674,11.674,0,0,0,4.256-8.991V76.421A12.691,12.691,0,0,1,18.044,63.85a12.691,12.691,0,0,1,12.781,12.57v4.947a11.659,11.659,0,0,0,4.237,8.978,3.246,3.246,0,0,1,1.176,2.488A3.286,3.286,0,0,1,32.93,96.088ZM18.044,64.15A12.391,12.391,0,0,0,5.563,76.421v4.947A11.972,11.972,0,0,1,1.2,90.589,2.932,2.932,0,0,0,.15,92.833a2.985,2.985,0,0,0,3.008,2.955H32.93a2.985,2.985,0,0,0,3.008-2.955,2.946,2.946,0,0,0-1.069-2.257,11.958,11.958,0,0,1-4.345-9.208V76.421A12.391,12.391,0,0,0,18.044,64.15ZM32.93,93.427H3.158a.605.605,0,0,1-.6-.593.588.588,0,0,1,.216-.456,14.293,14.293,0,0,0,5.2-11.01V76.421a10,10,0,0,1,10.074-9.909h0a10,10,0,0,1,10.074,9.909v4.947a14.3,14.3,0,0,0,5.2,11.013.583.583,0,0,1,.213.453A.605.605,0,0,1,32.93,93.427ZM18.044,66.812A9.7,9.7,0,0,0,8.27,76.421v4.947a14.591,14.591,0,0,1-5.3,11.24.29.29,0,0,0-.108.225.3.3,0,0,0,.3.293H32.93a.3.3,0,0,0,.3-.293.287.287,0,0,0-.105-.222,14.6,14.6,0,0,1-5.308-11.244V76.421A9.7,9.7,0,0,0,18.044,66.812Z" transform="translate(1107 -8340.714)" fill="#b9b9b9"/>
  </g>
</svg>
