<svg xmlns="http://www.w3.org/2000/svg" width="10.383" height="9.345" viewBox="0 0 10.383 9.345">
  <g id="그룹_125405" data-name="그룹 125405" transform="translate(1623 11026.173)">
    <path id="loop" d="M11.864,7.673a.49.49,0,0,0-.519.519A1.53,1.53,0,0,1,9.788,9.749H3.765l.675-.675a.514.514,0,1,0-.727-.727L2.156,9.905c-.052.052-.1.1-.1.156a.441.441,0,0,0,0,.415c0,.052.052.1.1.156l1.558,1.558a.5.5,0,0,0,.727,0,.5.5,0,0,0,0-.727l-.675-.675H9.788a2.571,2.571,0,0,0,2.6-2.6A.49.49,0,0,0,11.864,7.673Zm.467-2.8c0-.052-.052-.1-.1-.156L10.67,3.156a.514.514,0,0,0-.727.727l.675.675H4.6A2.571,2.571,0,0,0,2,7.153a.49.49,0,0,0,.519.519.49.49,0,0,0,.519-.519A1.53,1.53,0,0,1,4.6,5.6h6.022l-.675.675A.514.514,0,0,0,10.67,7L12.228,5.44c.052-.052.1-.1.1-.156a.312.312,0,0,0,.052-.208A.312.312,0,0,0,12.331,4.869Z" transform="translate(-1625 -11029.173)" fill="#fff"/>
  </g>
</svg>
