<svg xmlns="http://www.w3.org/2000/svg" width="24" height="24" viewBox="0 0 24 24">
  <g id="그룹_125009" data-name="그룹 125009" transform="translate(-237 -955)">
    <g id="그룹_37280" data-name="그룹 37280" transform="translate(237 955)">
      <g id="그룹_37279" data-name="그룹 37279" transform="translate(4.615 5.096)">
        <path id="패스_57394" data-name="패스 57394" d="M5491.669-13596.041H5475.1v-7.508a.9.9,0,0,1,.9-.9.9.9,0,0,1,.9.9v5.707h12.97v-5.707a.9.9,0,0,1,.9-.9.9.9,0,0,1,.9.9Z" transform="translate(-5476 13612.27)"/>
        <path id="패스_57395" data-name="패스 57395" d="M5648.2-13607.044a.9.9,0,0,1-.9-.9v-10.731a.9.9,0,0,1,.9-.9.9.9,0,0,1,.9.9v10.731A.9.9,0,0,1,5648.2-13607.044Z" transform="translate(-5640.811 13618.677)"/>
        <path id="패스_57396" data-name="패스 57396" d="M5651.079-13613.512a.9.9,0,0,1-.636-.264l-3.979-3.98-3.979,3.98a.9.9,0,0,1-1.272,0,.9.9,0,0,1,0-1.273l5.251-5.252.636.636,4.615,4.616a.9.9,0,0,1,0,1.273A.9.9,0,0,1,5651.079-13613.512Z" transform="translate(-5639.079 13619.028)"/>
      </g>
      <rect id="사각형_85729" data-name="사각형 85729" width="24" height="24" fill="none"/>
    </g>
  </g>
</svg>
